<svg width="30" height="29" viewBox="0 0 30 29" fill="none" xmlns="http://www.w3.org/2000/svg">
<g clip-path="url(#clip0_514:122)">
<path fill-rule="evenodd" clip-rule="evenodd" d="M3.4 0H26.6C28.2017 0 29.5 1.29827 29.5 2.9V26.1C29.5 27.7017 28.2017 29 26.6 29H3.4C1.79827 29 0.5 27.7017 0.5 26.1V2.9C0.5 1.29827 1.79827 0 3.4 0Z" fill="#010101"/>
<path fill-rule="evenodd" clip-rule="evenodd" d="M20.3411 11.4437C21.8514 12.5227 23.7017 13.1577 25.7 13.1577V9.31419C25.3218 9.31434 24.9446 9.27489 24.5746 9.19648V12.2219C22.5764 12.2219 20.7264 11.5869 19.2156 10.5079V18.3512C19.2156 22.2748 16.0333 25.4553 12.1078 25.4553C10.6432 25.4553 9.28181 25.0128 8.15088 24.2538C9.44162 25.5728 11.2416 26.3911 13.233 26.3911C17.1587 26.3911 20.3412 23.2106 20.3412 19.2868V11.4437H20.3411ZM21.7294 7.56614C20.9575 6.72336 20.4508 5.63412 20.3411 4.42993V3.93561H19.2746C19.543 5.46604 20.4586 6.7736 21.7294 7.56614ZM10.6337 21.243C10.2025 20.6779 9.9694 19.9865 9.97044 19.2757C9.97044 17.4811 11.4261 16.0261 13.2219 16.0261C13.5566 16.0259 13.8892 16.0773 14.2082 16.1784V12.2491C13.8355 12.198 13.4593 12.1764 13.0832 12.1843V15.2427C12.7641 15.1416 12.4313 15.0903 12.0965 15.0905C10.3007 15.0905 8.84517 16.5454 8.84517 18.3401C8.84517 19.6091 9.57272 20.7078 10.6337 21.243Z" fill="#EE1D52"/>
<path fill-rule="evenodd" clip-rule="evenodd" d="M19.2156 10.5079C20.7263 11.5869 22.5763 12.2219 24.5744 12.2219V9.19648C23.4591 8.95912 22.4717 8.37648 21.7292 7.56614C20.4585 6.7736 19.5429 5.46604 19.2745 3.93561H16.4733V19.2867C16.4669 21.0763 15.0138 22.5253 13.2219 22.5253C12.1659 22.5253 11.2278 22.0223 10.6337 21.243C9.57274 20.7078 8.84521 19.6091 8.84521 18.3401C8.84521 16.5454 10.3007 15.0905 12.0965 15.0905C12.4405 15.0905 12.7721 15.144 13.0832 15.2427V12.1843C9.22678 12.264 6.12524 15.4134 6.12524 19.2868C6.12524 21.2204 6.89763 22.9732 8.15107 24.2539C9.28198 25.0129 10.6433 25.4555 12.1079 25.4555C16.0333 25.4555 19.2156 22.2748 19.2156 18.3513V10.5079Z" fill="white"/>
<path fill-rule="evenodd" clip-rule="evenodd" d="M24.5742 9.19652V8.37845C23.5684 8.37996 22.5824 8.09843 21.7291 7.56604C22.4845 8.39263 23.4791 8.96267 24.5742 9.19652ZM19.2744 3.93565C19.2487 3.7894 19.2291 3.64217 19.2154 3.49432V3H15.3476V18.3512C15.3414 20.1407 13.8884 21.5897 12.0964 21.5897C11.5702 21.5897 11.0736 21.4649 10.6336 21.243C11.2277 22.0223 12.1658 22.5253 13.2218 22.5253C15.0135 22.5253 16.4668 21.0763 16.4732 19.2867V3.93565H19.2744ZM13.0832 12.1844V11.3134C12.76 11.2693 12.4342 11.2472 12.108 11.2473C8.18223 11.2473 5 14.428 5 18.3512C5 20.8109 6.25068 22.9787 8.15118 24.2538C6.89775 22.9731 6.12537 21.2203 6.12537 19.2867C6.12537 15.4135 9.22674 12.264 13.0832 12.1844Z" fill="#69C9D0"/>
</g>
<defs>
<clipPath id="clip0_514:122">
<rect width="29" height="29" fill="white" transform="translate(0.5)"/>
</clipPath>
</defs>
</svg>
